inDegrees=yes
name=ik_MT_2026-09-05_11h40_01210270-000-000_orientations
DataType=double
version=3
OpenSimVersion=4.5
endheader
time	pelvis_tilt	pelvis_list	pelvis_rotation	pelvis_tx	pelvis_ty	pelvis_tz	hip_flexion_r	hip_adduction_r	hip_rotation_r	knee_angle_r	knee_angle_r_beta	ankle_angle_r	subtalar_angle_r	mtp_angle_r	hip_flexion_l	hip_adduction_l	hip_rotation_l	knee_angle_l	knee_angle_l_beta	ankle_angle_l	subtalar_angle_l	mtp_angle_l	lumbar_extension	lumbar_bending	lumbar_rotation	arm_flex_r	arm_add_r	arm_rot_r	elbow_flex_r	pro_sup_r	wrist_flex_r	wrist_dev_r	arm_flex_l	arm_add_l	arm_rot_l	elbow_flex_l	pro_sup_l	wrist_flex_l	wrist_dev_l
189.95	-11.17934150231432	2.991501970386101	-3444.791754419974	0	0.9399999999999999	0	-2219.622193613	-613.2761424829577	956.8893577149931	202.4073557265707	3.532674787684059	-12.52137492368797	0	0	30.3871160193539	-14.49899143540945	2.910008096443975	16.36285250955	0.2855856513098644	-7.170773020580915	0	0	-13.26310811899331	-1.990667222115106	0.3001517555868951	8.297310519695319	-27.71547912626661	28.81961054494635	46.02001693602973	45.00000025534055	0	0	-16.20007966749601	4.48597758807006	-2.315979225185105	66.5446654599763	45.00000025534055	0	0
189.975	-11.33134354123366	3.125974725062739	-3446.674458306014	0	0.9399999999999999	0	-2226.745343120392	-612.8409236358993	961.2904823237136	198.6357862626635	3.4668484825712	-17.17625188896954	0	0	26.41476461987136	-13.8992553402883	1.265382955021804	15.10652760218633	0.2636586452015557	-7.302484195778119	0	0	-13.70011376304731	-3.590548359554765	1.941095983603734	6.89958266230265	-27.89280726201711	28.07544456378763	47.18039602243038	45.00000025534055	0	0	-16.83072310646141	3.663999667177174	-1.858342864031963	66.41373884698284	45.00000025534055	0	0
190	-11.0722651000304	3.579309722106736	-3448.085786483768	0	0.9399999999999999	0	-2231.317615433102	-613.2418147736893	964.2386768295098	196.6014023850183	3.431341785656802	-24.24741683471033	0	0	22.92233812089644	-13.71432585564249	0.2597511401411433	14.02722499577814	0.2448212610943762	-7.330267639316241	0	0	-13.27673814376063	-5.179761936582254	3.708248691217398	4.446316993873052	-27.48720521412168	26.49127477659483	48.23192552425733	45.00000025534055	0	0	-17.88231416268354	2.362420512476685	-1.380268323588131	65.89884110420127	45.00000025534055	0	0
190.025	-10.22908504394907	4.100124223685877	-3449.249368226688	0	0.9399999999999999	0	-2235.361538749105	-613.2339502442376	966.6516263936609	194.3168914822579	3.391469548605925	-31.25964081476041	0	0	19.9022739787222	-14.35149861071045	-0.6334182584440903	12.5726097044765	0.2194334349113062	-7.7056969898504	0	0	-12.16485755714179	-6.510458096072927	5.253078243690902	1.388573124306382	-27.03153987137801	24.09163354502859	49.71407906229589	45.00000025534055	0	0	-18.84980331532476	0.8199690498593619	-1.307760407766081	65.34356975851928	45.00000025534055	0	0
190.05	-9.34891683660188	4.553974671362915	-3450.563990457276	0	0.9399999999999999	0	-2241.584497083086	-612.5289413900715	969.7711777461305	190.6793852399567	3.327983088115923	-34.48671331528173	0	0	18.49058610114209	-15.05920009248133	-1.968105460033509	12.09469605562975	0.2110922681987103	-7.110235836800157	0	0	-13.13548235844342	-7.483909014650986	7.183407020211441	0.1266775252777954	-26.5809717198093	20.53988647258328	50.89944918262506	45.00000025534055	0	0	-17.58770325919251	-0.3421339946877828	-0.6916468595097304	65.17713440048438	45.00000025534055	0	0
190.075	-8.599751338198349	4.773643985825407	-3451.663533278093	0	0.9399999999999999	0	-2248.927471532875	-612.3708297397496	974.9769833568696	189.0884179543632	3.300215470690798	-36.01523464350245	0	0	18.75413280473547	-15.43499035080486	-3.667610157191271	12.73454503375351	0.2222597395824911	-6.000869520186757	0	0	-14.6304418533191	-8.321047216987804	8.467081967521111	0.1784340296242973	-25.52190711869469	18.36358167135353	50.5407863428663	45.00000025534055	0	0	-15.94054916016679	-1.096692973835279	0.005509842130110243	65.65506742709692	45.00000025534055	0	0
190.1	-6.949701620878317	4.113490136193071	-3452.143066165742	0	0.9399999999999999	0	-2258.029301829718	-615.8826319115736	987.9645740207466	195.5070548057156	3.41224181723674	-38.06007657348447	0	0	18.97470136261866	-15.94724233643151	-5.859044175165536	10.58263830829284	0.1847018820273928	-8.806569660227824	0	0	-13.77716586987718	-8.964723572746843	8.88766811732234	0.02344100468423636	-23.79867718207084	18.37308636713189	48.47267722612857	45.00000025534055	0	0	-15.71371627440178	-1.734332013562424	0.8015459737524979	66.66319262156874	45.00000025534055	0	0
190.125	-4.246942495953939	2.026650451650561	-3451.876269879928	0	0.9399999999999999	0	-2272.367194761007	-617.3250168378422	1007.480345718278	201.9405927915521	3.524528237641711	-35.6940006040702	0	0	19.83384127841418	-14.01635233693287	-8.800964745298122	7.54923052843738	0.1317589287133037	-11.38092474075747	0	0	-11.01519439372023	-9.868301001000724	8.047875258881788	-0.04936157954378231	-22.58301616092176	19.82204071118472	45.99716512771063	45.00000025534055	0	0	-15.80144050764248	-1.967537470718595	1.494933030512144	67.7209228678185	45.00000025534055	0	0
190.15	-1.482832366837547	-0.4099630434592377	-3450.924110400644	0	0.9399999999999999	0	-2279.685007600406	-615.8525018619314	1017.083774134831	203.8361766481866	3.557612417187634	-32.37802926118806	0	0	21.85987735990382	-10.85291346109389	-8.538262852315585	6.941715859080571	0.1211557974788627	-10.77725899379056	0	0	-8.048567953991022	-10.96267235373419	6.488034313603624	0.1557050082527506	-21.50343942179477	22.07709213291743	42.75718817437088	45.00000025534055	0	0	-15.85399810038464	-2.055110515435666	2.24876178531757	68.80745720865814	45.00000025534055	0	0
190.175	1.046187570007243	-1.90049941600826	-3449.40010402246	0	0.9399999999999999	0	-2279.466662946006	-614.8687604667283	1017.389540138196	204.6890479195912	3.572497828969316	-29.39394866416266	0	0	24.43555697633576	-8.549887997276256	-5.049147029341011	7.301378559528079	0.1274330957982858	-10.54801452473467	0	0	-6.012517276882759	-11.27595409005944	4.362465178189785	0.5125797745511631	-20.49471776459058	24.33060658617137	39.21503973835149	45.00000025534055	0	0	-15.76483432395028	-1.906337347891015	2.869145919878544	69.91424669103094	45.00000025534055	0	0
190.2	2.886595725086936	-2.128994158855746	-3448.607935540846	0	0.9399999999999999	0	-2284.190291153847	-616.6467387710851	1023.294799843455	209.4530048712101	3.655644563198338	-26.22485147492525	0	0	25.65521739553568	-7.401513784556274	-2.189939359916712	7.298620011189312	0.1273849500471989	-11.22131382093078	0	0	-4.838537439681692	-10.77685944226656	3.074212724265391	0.5551662029234429	-19.68752451578485	26.05273273545538	35.74748497583131	45.00000025534055	0	0	-15.76686058691666	-1.486788634476153	3.167640123847674	70.84538419004357	45.00000025534055	0	0
190.225	3.278152443306937	-1.263337882869323	-3448.717044084467	0	0.9399999999999999	0	-2308.490627659353	-619.482452573783	1049.231680534725	218.8124935247272	3.818998456505262	-22.97719437597951	0	0	24.30220252825988	-7.623216141267401	-1.474453090340471	6.94320387888672	0.1211817683238149	-11.67916913961793	0	0	-5.004947432287707	-10.02060857093329	2.883033193804609	0.326496722807631	-19.03477916855208	27.03339426066169	32.78860889559657	45.00000025534055	0	0	-15.74932073731309	-1.075824842251773	3.15475947291304	71.31674903500789	45.00000025534055	0	0
